<svg xmlns="http://www.w3.org/2000/svg" width="640" height="640" viewBox="0 0 480 480">
  <defs/>
  <path d="M8 376h24v96c0 4.414 3.574 8 8 8h80c4.426 0 8-3.586 8-8V312h72c4.426 0 8-3.586 8-8v-20l84.922 35.383c.988.418 2.039.617 3.078.617a8.05 8.05 0 004.441-1.344A8.013 8.013 0 00304 312V184a8.013 8.013 0 00-3.559-6.656 7.975 7.975 0 00-7.511-.727L198.398 216H168c-4.426 0-8 3.586-8 8v40h-44.32c7.632-8.504 12.32-19.695 12.32-32 0-26.473-21.527-48-48-48s-48 21.527-48 48c0 12.305 4.688 23.496 12.32 32H40c-22.055 0-40 17.945-40 40v64c0 4.414 3.574 8 8 8zm280-76l-80-33.336v-37.336L288 196zm-112-68h16v32h-16zm-128 0c0-17.648 14.352-32 32-32s32 14.352 32 32-14.352 32-32 32-32-14.352-32-32zm-32 72c0-13.23 10.77-24 24-24h152v16h-72c-4.426 0-8 3.586-8 8v160H88v-96H72v96H48V304H32v56H16zm0 0M480 120.031c0-20.91-16.176-37.933-36.633-39.687C451.184 71.8 456 60.464 456 48c0-26.473-21.527-48-48-48s-48 21.527-48 48c0 12.465 4.816 23.8 12.633 32.344C352.176 82.098 336 99.12 336 120.03V136c0 4.414 3.574 8 8 8h128c4.426 0 8-3.586 8-8zM408 16c17.648 0 32 14.352 32 32s-14.352 32-32 32-32-14.352-32-32 14.352-32 32-32zm56 112H352v-7.969C352 106.785 362.785 96 376.031 96h63.938C453.215 96 464 106.785 464 120.031zm0 0M480 288.031c0-20.91-16.176-37.933-36.633-39.687C451.184 239.8 456 228.464 456 216c0-26.473-21.527-48-48-48s-48 21.527-48 48c0 12.465 4.816 23.8 12.633 32.344C352.176 250.098 336 267.12 336 288.03V304c0 4.414 3.574 8 8 8h128c4.426 0 8-3.586 8-8zM408 184c17.648 0 32 14.352 32 32s-14.352 32-32 32-32-14.352-32-32 14.352-32 32-32zm56 112H352v-7.969C352 274.785 362.785 264 376.031 264h63.938C453.215 264 464 274.785 464 288.031zm0 0M480 456.031c0-20.91-16.176-37.933-36.633-39.687C451.184 407.8 456 396.464 456 384c0-26.473-21.527-48-48-48s-48 21.527-48 48c0 12.465 4.816 23.8 12.633 32.344C352.176 418.098 336 435.12 336 456.03V472c0 4.414 3.574 8 8 8h128c4.426 0 8-3.586 8-8zM408 352c17.648 0 32 14.352 32 32s-14.352 32-32 32-32-14.352-32-32 14.352-32 32-32zm56 112H352v-7.969C352 442.785 362.785 432 376.031 432h63.938C453.215 432 464 442.785 464 456.031zm0 0M108.938 167.39c.992.41 2.03.61 3.062.61a8.008 8.008 0 005.656-2.344L171.312 112H256c13.23 0 24-10.77 24-24V24c0-13.23-10.77-24-24-24H96C82.77 0 72 10.77 72 24v64c0 13.23 10.77 24 24 24h8v48a8 8 0 004.938 7.39zM96 96c-4.414 0-8-3.594-8-8V24c0-4.406 3.586-8 8-8h160c4.414 0 8 3.594 8 8v64c0 4.406-3.586 8-8 8h-88c-2.129 0-4.16.84-5.656 2.344L120 140.688V104c0-4.414-3.574-8-8-8zm0 0"/>
  <path d="M104 32h32v16h-32zm0 0M104 64h48v16h-48zm0 0M152 32h96v16h-96zm0 0M168 64h16v16h-16zm0 0M200 64h16v16h-16zm0 0M232 64h16v16h-16zm0 0"/>
</svg>
