<svg xmlns="http://www.w3.org/2000/svg" xml:space="preserve" width="200px" height="231px" version="1.1" style="shape-rendering:geometricPrecision; text-rendering:geometricPrecision; image-rendering:optimizeQuality; fill-rule:evenodd; clip-rule:evenodd" viewBox="0 0 45.89 52.97"  xmlns:xlink="http://www.w3.org/1999/xlink">
 <defs>
  <style type="text/css">
   <![CDATA[
    .fil0 {fill:white;fill-rule:nonzero}
   ]]>
  </style>
 </defs>
 <g id="Camada_x0020_1">
  <path class="fil0" d="M23.47 0.31l10.94 6.31 0 0 11.48 6.62 0 26.49 -11.48 6.62 0 0 -11.47 6.62 -11.46 -6.62 -0.01 0 -11.47 -6.62 0 -26.49 11.47 -6.62 0.01 0 11.46 -6.62 0.53 0.31zm9.88 8.15l-10.41 -6 -10.4 6 0 0 -10.4 6.01 0 24.03 10.4 6.01 0 0 10.4 6.01 10.41 -6.01 0 0 10.4 -6.01 0 -24.03 -10.4 -6.01 0 0z"/>
 </g>
</svg>
