<svg xmlns="http://www.w3.org/2000/svg" width="512" height="512"><defs/><path d="M497 241h-6.796l-51.906-103.811c10.771-5.59 19.12-15.21 23.041-26.855H497c8.284 0 15-6.716 15-15s-6.716-15-15-15h-35.662C455.057 61.678 437.412 48.2 416.667 48.2s-38.391 13.478-44.672 32.133h-54.608C311.81 57.515 293.818 39.524 271 33.947V15c0-8.284-6.716-15-15-15s-15 6.716-15 15v18.947c-22.818 5.577-40.81 23.569-46.387 46.387h-54.608C133.724 61.678 116.078 48.2 95.333 48.2s-38.39 13.478-44.671 32.133H15c-8.284 0-15 6.716-15 15s6.716 15 15 15h35.662c3.921 11.645 12.269 21.266 23.04 26.855L21.796 241H15c-8.284 0-15 6.716-15 15 0 52.567 42.767 95.333 95.333 95.333 52.567 0 95.334-42.767 95.334-95.333 0-8.284-6.716-15-15-15h-6.797l-51.906-103.811c10.771-5.59 19.12-15.21 23.041-26.855h54.608c5.577 22.818 23.568 40.809 46.387 46.386v196.747h-49.267c-8.284 0-15 6.716-15 15v49.267h-49.267c-8.284 0-15 6.716-15 15V497c0 8.284 6.716 15 15 15h257.066c8.284 0 15-6.716 15-15v-64.267c0-8.284-6.716-15-15-15h-49.267v-49.267c0-8.284-6.716-15-15-15H271V156.72c22.818-5.577 40.81-23.568 46.387-46.386h54.608c3.921 11.645 12.27 21.266 23.042 26.855L343.13 241h-6.797c-8.284 0-15 6.716-15 15 0 52.567 42.767 95.333 95.334 95.333C469.233 351.333 512 308.567 512 256c0-8.284-6.716-15-15-15zM95.333 78.2c9.447 0 17.134 7.686 17.134 17.133s-7.687 17.133-17.134 17.133S78.2 104.781 78.2 95.333 85.886 78.2 95.333 78.2zm0 243.133c-30.864 0-56.799-21.515-63.596-50.333H158.93c-6.797 28.819-32.733 50.333-63.597 50.333zM135.329 241H55.337l39.996-79.992zm234.204 206.733V482H142.467v-34.267zm-64.266-64.266v34.267h-98.533v-34.267zM256 128.533c-18.307 0-33.2-14.894-33.2-33.2 0-18.307 14.894-33.2 33.2-33.2s33.2 14.894 33.2 33.2c0 18.307-14.893 33.2-33.2 33.2zM416.667 78.2c9.447 0 17.133 7.686 17.133 17.133s-7.686 17.133-17.133 17.133-17.134-7.686-17.134-17.133S407.22 78.2 416.667 78.2zm0 82.808L456.664 241H376.67zm0 160.325c-30.864 0-56.8-21.515-63.597-50.333h127.192c-6.796 28.819-32.731 50.333-63.595 50.333z"/></svg>