<svg id="OutlineExpand" enable-background="new 0 0 64 64" height="512" viewBox="0 0 64 64" width="512" xmlns="http://www.w3.org/2000/svg"><path d="m61 32h-1v-1c0-.123-.022-.244-.066-.359l-4.575-11.894c1.536-.56 2.641-2.02 2.641-3.747 0-2.206-1.794-4-4-4-1.719 0-3.175 1.095-3.74 2.619l-12.894-1.287c-.508-1.017-1.295-1.868-2.262-2.457l-2.147-7.162c-.126-.423-.516-.713-.957-.713s-.831.29-.958.713l-2.147 7.162c-.967.588-1.754 1.439-2.262 2.457l-12.893 1.287c-.565-1.524-2.021-2.619-3.74-2.619-2.206 0-4 1.794-4 4 0 1.727 1.105 3.187 2.641 3.746l-4.575 11.895c-.044.115-.066.236-.066.359v1h-1c-.553 0-1 .447-1 1v3c0 1.654 1.346 3 3 3h10c1.654 0 3-1.346 3-3v-3c0-.553-.447-1-1-1h-1v-1c0-.123-.022-.244-.066-.359l-4.575-11.894c1.102-.401 1.973-1.266 2.381-2.366l12.894 1.287c.526 1.054 1.351 1.931 2.366 2.52v32.812h-6c-.266 0-.52.105-.707.293l-3 3c-.188.187-.293.441-.293.707v4c0 .553.447 1 1 1h24c.553 0 1-.447 1-1v-4c0-.266-.105-.52-.293-.707l-3-3c-.187-.188-.441-.293-.707-.293h-6v-32.812c1.015-.589 1.84-1.466 2.366-2.52l12.894-1.287c.407 1.099 1.278 1.964 2.381 2.366l-4.575 11.894c-.044.115-.066.236-.066.359v1h-1c-.553 0-1 .447-1 1v3c0 1.654 1.346 3 3 3h10c1.654 0 3-1.346 3-3v-3c0-.553-.447-1-1-1zm-45 4c0 .552-.448 1-1 1h-10c-.552 0-1-.448-1-1v-2h12zm-2-4h-8v-.814l4-10.399 4 10.399zm-4-15c-1.103 0-2-.897-2-2s.897-2 2-2 2 .897 2 2-.897 2-2 2zm10.044-2 5.986-.598c-.019.197-.03.396-.03.598s.011.401.03.598zm11.956-8.517.771 2.572c-.253-.032-.509-.055-.771-.055s-.518.023-.771.055zm11 50.931v2.586h-22v-2.586l2.414-2.414h17.172zm-10-4.414h-2v-32.09c.326.055.659.09 1 .09s.674-.035 1-.09zm-1-34c-2.206 0-4-1.794-4-4s1.794-4 4-4 4 1.794 4 4-1.794 4-4 4zm5.97-4.598 5.986.598-5.986.598c.019-.197.03-.396.03-.598s-.011-.401-.03-.598zm14.03.598c0-1.103.897-2 2-2s2 .897 2 2-.897 2-2 2-2-.897-2-2zm-2 16.186 4-10.399 4 10.399v.814h-8zm10 4.814c0 .552-.448 1-1 1h-10c-.552 0-1-.448-1-1v-2h12z"/></svg>