<?xml version="1.0" encoding="UTF-8"?>
<!DOCTYPE svg PUBLIC "-//W3C//DTD SVG 1.1//EN" "http://www.w3.org/Graphics/SVG/1.1/DTD/svg11.dtd">
<!-- Creator: CorelDRAW 2019 (64 Bit) -->
<svg xmlns="http://www.w3.org/2000/svg" xml:space="preserve" width="512px" height="126px" version="1.1" style="shape-rendering:geometricPrecision; text-rendering:geometricPrecision; image-rendering:optimizeQuality; fill-rule:evenodd; clip-rule:evenodd"
viewBox="0 0 512 126"
 xmlns:xlink="http://www.w3.org/1999/xlink">
 <defs>
  <style type="text/css">
   <![CDATA[
    .fil5 {fill:none}
    .fil2 {fill:#08A045}
    .fil4 {fill:#0B6E4F}
    .fil3 {fill:#6BBF59}
    .fil1 {fill:#FED141}
    .fil0 {fill:white}
    .fil7 {fill:#1E4044;fill-rule:nonzero}
    .fil6 {fill:white;fill-rule:nonzero}
   ]]>
  </style>
     <clipPath id="id0">
      <path d="M75.45 115.49c20.58,0 37.25,-16.68 37.25,-37.25 0,-20.57 -16.67,-37.25 -37.25,-37.25 -20.57,0 -37.24,16.68 -37.24,37.25 0,20.57 16.67,37.25 37.24,37.25z"/>
     </clipPath>
 </defs>
 <g id="Camada_x0020_1">
  <metadata id="CorelCorpID_0Corel-Layer"/>
  <g id="_2528823587600">
   <g>
    <path class="fil0" d="M84.55 14.34c33.12,19.12 28.09,10.42 28.09,48.66 0,38.24 5.03,29.53 -28.09,48.65 -33.12,19.12 -23.07,19.12 -56.18,0 -33.12,-19.12 -28.1,-10.41 -28.1,-48.65 0,-38.24 -5.02,-29.54 28.1,-48.66 33.11,-19.12 23.06,-19.12 56.18,0z"/>
    <path class="fil1" d="M82.71 17.6c30.94,17.87 26.25,9.74 26.25,45.47 0,0.35 0,0.68 0,1.02l0 0.03 -105.01 0 0 -0.13c0,-0.3 0.01,-0.61 0.01,-0.92 0,-35.73 -4.7,-27.6 26.25,-45.47 30.94,-17.86 21.55,-17.86 52.5,0z"/>
    <path class="fil2" d="M109.4 64.98c0.08,34.52 4.38,26.74 -26.26,44.43 -30.94,17.86 -21.56,17.86 -52.5,0 -30.64,-17.69 -26.34,-9.91 -26.25,-44.43l105.01 0z"/>
    <path class="fil3" d="M95.79 54.05l-78.75 0 0 -20.01c0,-7.25 5.88,-13.13 13.13,-13.13 7.24,0 13.12,5.88 13.12,13.13 0,-7.25 5.88,-13.13 13.13,-13.13 7.25,0 13.12,5.88 13.12,13.13 0,-7.25 5.88,-13.13 13.13,-13.13 7.25,0 13.12,5.88 13.12,13.13l0 20.01zm-13.12 -34.67c3.17,0 5.74,-2.57 5.74,-5.74 0,-3.18 -2.57,-5.75 -5.74,-5.75 -3.17,0 -5.75,2.57 -5.75,5.75 0,3.17 2.58,5.74 5.75,5.74zm-26.25 0c3.17,0 5.74,-2.57 5.74,-5.74 0,-3.18 -2.57,-5.75 -5.74,-5.75 -3.18,0 -5.75,2.57 -5.75,5.75 0,3.17 2.57,5.74 5.75,5.74zm-26.25 0c3.17,0 5.74,-2.57 5.74,-5.74 0,-3.18 -2.57,-5.75 -5.74,-5.75 -3.18,0 -5.75,2.57 -5.75,5.75 0,3.17 2.57,5.74 5.75,5.74z"/>
    <path class="fil2" d="M95.83 32.71c3.99,0 7.22,-3.06 7.22,-6.83 0,-3.77 -3.23,-6.83 -7.22,-6.83 -3.98,0 -7.21,3.06 -7.21,6.83 0,3.77 3.23,6.83 7.21,6.83zm-91.87 35.28l0 -21.57c0,-6.86 5.87,-12.42 13.12,-12.42 7.25,0 13.13,5.56 13.13,12.42 0,-6.86 5.87,-12.42 13.12,-12.42 7.25,0 13.13,5.56 13.13,12.42 0,-6.86 5.87,-12.42 13.12,-12.42 7.25,0 13.13,5.56 13.13,12.42 0,-6.86 5.88,-12.42 13.12,-12.42 7.25,0 13.13,5.56 13.13,12.42l0 21.57 -105 0zm13.12 -35.28c3.98,0 7.21,-3.06 7.21,-6.83 0,-3.77 -3.23,-6.83 -7.21,-6.83 -3.98,0 -7.21,3.06 -7.21,6.83 0,3.77 3.23,6.83 7.21,6.83zm26.25 0c3.99,0 7.21,-3.06 7.21,-6.83 0,-3.77 -3.22,-6.83 -7.21,-6.83 -3.98,0 -7.21,3.06 -7.21,6.83 0,3.77 3.23,6.83 7.21,6.83zm26.25 0c3.99,0 7.21,-3.06 7.21,-6.83 0,-3.77 -3.22,-6.83 -7.21,-6.83 -3.98,0 -7.21,3.06 -7.21,6.83 0,3.77 3.23,6.83 7.21,6.83z"/>
    <path class="fil0" d="M68.68 72.47c3.18,-3.18 8.34,-3.18 11.53,0 3.18,3.19 3.18,8.35 0,11.53l-36.4 36.4c-3.18,3.18 -8.34,3.18 -11.52,0 -3.19,-3.19 -3.19,-8.35 0,-11.53l36.39 -36.4z"/>
    <path class="fil1" d="M47.24 59.9c2.3,0.17 4.51,0.41 6.66,0.74 0.3,0.05 0.6,0.1 0.9,0.15 0.11,0.02 0.22,0.03 0.33,0.04 0.75,0.14 1.36,0.44 1.82,0.93 0.22,0.24 0.41,0.52 0.57,0.85l4.52 9.16c0.51,0.87 0.86,1.42 1.06,1.65l2.69 3.05c0.15,0.18 0.29,0.35 0.41,0.54 0.78,1.12 1.08,2.45 0.91,3.97 -0.07,0.66 -0.14,1.31 -0.21,1.93 -0.01,0.05 -0.01,0.09 -0.01,0.13 -0.15,1.26 -0.31,2.44 -0.48,3.53 0,3.4 0,6.81 0,10.21 0,0.47 -0.17,0.88 -0.51,1.21 -0.3,0.31 -0.66,0.47 -1.08,0.5l-4.09 0c-0.42,-0.03 -0.77,-0.19 -1.07,-0.5 -0.33,-0.32 -0.5,-0.71 -0.51,-1.17l0 -3.34c-5.84,0.4 -11.68,0.6 -17.54,0.59 -4.42,0.01 -8.84,-0.11 -13.25,-0.34 -0.37,-0.02 -0.73,-0.03 -1.1,-0.05 -1.06,-0.06 -2.12,-0.13 -3.19,-0.2l0 3.34c-0.01,0.46 -0.18,0.85 -0.5,1.17 -0.3,0.31 -0.66,0.47 -1.08,0.5l-4.09 0c-0.42,-0.03 -0.78,-0.19 -1.09,-0.5 -0.33,-0.33 -0.5,-0.74 -0.5,-1.21 0,-3.4 0,-6.81 0,-10.21 -0.17,-1.09 -0.33,-2.27 -0.48,-3.53 0,-0.04 -0.01,-0.08 -0.01,-0.13 -0.07,-0.62 -0.14,-1.27 -0.21,-1.93 -0.17,-1.52 0.13,-2.85 0.91,-3.97 0.12,-0.19 0.26,-0.37 0.41,-0.54l2.69 -3.05c0.2,-0.23 0.56,-0.78 1.07,-1.65l4.52 -9.16c0.15,-0.33 0.34,-0.61 0.56,-0.85 0.46,-0.49 1.07,-0.79 1.82,-0.93 0.11,-0.01 0.22,-0.02 0.33,-0.04 0.3,-0.05 0.6,-0.1 0.9,-0.15 2.14,-0.33 4.36,-0.57 6.66,-0.74 3.27,-0.24 7.99,-0.24 11.26,0zm-8.35 2.69c-0.05,0.01 -0.1,0.01 -0.16,0.01l-2.06 0.08c-0.15,0.02 -0.3,0.03 -0.44,0.05 -1.59,0.09 -3.14,0.23 -4.67,0.39 -0.5,0.06 -0.99,0.13 -1.48,0.2 -0.05,0 -0.09,0 -0.13,0 -0.28,0.05 -0.54,0.12 -0.77,0.24 -0.47,0.21 -0.83,0.56 -1.08,1.04l-2.69 5.72c0.8,-0.04 1.59,-0.08 2.39,-0.12 4.61,-0.2 9.21,-0.3 13.81,-0.31 4.59,0.01 9.19,0.11 13.79,0.31 0.8,0.04 1.6,0.08 2.39,0.12l-2.7 -5.72c-0.24,-0.48 -0.59,-0.83 -1.06,-1.04 -0.23,-0.11 -0.49,-0.19 -0.78,-0.24 -0.04,0 -0.08,0 -0.11,0 -0.49,-0.07 -0.99,-0.14 -1.48,-0.2 -1.53,-0.16 -3.09,-0.3 -4.68,-0.39 -0.15,-0.02 -0.3,-0.03 -0.44,-0.05l-2.06 -0.08c-0.06,0 -0.11,0 -0.16,-0.01 -0.03,0 -0.06,0 -0.08,-0.01 -0.84,-0.02 -1.72,-0.03 -2.63,-0.05 -0.92,0.02 -1.8,0.03 -2.64,0.05 -0.03,0.01 -0.05,0.01 -0.08,0.01zm-6.51 18.78c2.55,2.55 5.63,3.83 9.23,3.83 0.06,0 0.12,0 0.19,0l0.01 0c3.51,-0.04 6.52,-1.32 9.03,-3.83 0.41,-0.41 0.78,-0.82 1.12,-1.26l-20.71 0c0.34,0.44 0.72,0.85 1.13,1.26zm-7.57 -3.64c-0.56,-0.56 -1.23,-0.84 -2.03,-0.84 -0.8,0 -1.49,0.28 -2.05,0.84 -0.56,0.56 -0.85,1.24 -0.85,2.04 0,0.8 0.29,1.48 0.85,2.05 0.56,0.56 1.25,0.84 2.05,0.84 0.8,0 1.47,-0.28 2.03,-0.84 0.57,-0.57 0.86,-1.25 0.86,-2.05 -0.01,-0.8 -0.29,-1.48 -0.86,-2.04zm33.6 0c-0.56,0.56 -0.85,1.24 -0.85,2.04 0,0.8 0.29,1.48 0.85,2.05 0.56,0.56 1.24,0.84 2.04,0.84 0.8,0 1.48,-0.28 2.05,-0.84 0.56,-0.57 0.84,-1.25 0.85,-2.05 -0.01,-0.8 -0.29,-1.48 -0.85,-2.04 -0.57,-0.56 -1.25,-0.84 -2.05,-0.84 -0.8,0 -1.48,0.28 -2.04,0.84z"/>
    <path class="fil1" d="M75.45 115.49c20.58,0 37.25,-16.68 37.25,-37.25 0,-20.57 -16.67,-37.25 -37.25,-37.25 -20.57,0 -37.24,16.68 -37.24,37.25 0,20.57 16.67,37.25 37.24,37.25z"/>
    <g style="clip-path:url(#id0)">
     <g>
      <path id="1" class="fil4" d="M60.75 47.1c3.76,0.27 7.4,0.67 10.91,1.21 0.49,0.08 0.98,0.16 1.47,0.25 0.18,0.02 0.36,0.04 0.54,0.07 1.24,0.21 2.24,0.72 2.98,1.52 0.38,0.39 0.69,0.85 0.94,1.39l7.42 15.02c0.82,1.42 1.4,2.32 1.74,2.7l4.39 4.99c0.25,0.29 0.48,0.58 0.68,0.89 1.27,1.84 1.77,4.01 1.49,6.5 -0.11,1.09 -0.23,2.15 -0.35,3.17 0,0.07 0,0.15 -0.01,0.22 -0.24,2.06 -0.5,3.99 -0.79,5.78 0,5.58 0,11.15 0,16.73 0,0.78 -0.28,1.44 -0.83,1.99 -0.49,0.5 -1.08,0.77 -1.77,0.81l-6.7 0c-0.68,-0.04 -1.27,-0.31 -1.76,-0.81 -0.54,-0.53 -0.82,-1.17 -0.84,-1.92l0 -5.48c-9.56,0.65 -19.14,0.98 -28.73,0.98 -7.25,0 -14.5,-0.19 -21.73,-0.56 -0.6,-0.03 -1.2,-0.06 -1.79,-0.1 -1.75,-0.1 -3.49,-0.21 -5.23,-0.32l0 5.48c-0.02,0.75 -0.29,1.39 -0.83,1.92 -0.49,0.5 -1.08,0.77 -1.77,0.81l-6.7 0c-0.69,-0.04 -1.29,-0.31 -1.79,-0.81 -0.54,-0.55 -0.81,-1.21 -0.81,-1.99 0,-5.58 0,-11.15 0,-16.73 -0.28,-1.79 -0.55,-3.72 -0.79,-5.78 -0.01,-0.08 -0.01,-0.15 -0.02,-0.22 -0.11,-1.02 -0.23,-2.08 -0.34,-3.17 -0.28,-2.49 0.22,-4.66 1.49,-6.5 0.2,-0.31 0.43,-0.6 0.68,-0.89l4.39 -4.99c0.34,-0.38 0.93,-1.28 1.76,-2.7l7.41 -15.02c0.25,-0.54 0.56,-1 0.93,-1.39 0.74,-0.8 1.74,-1.31 2.98,-1.52 0.17,-0.03 0.35,-0.05 0.53,-0.07 0.49,-0.09 0.98,-0.17 1.48,-0.25 3.51,-0.54 7.15,-0.94 10.91,-1.21 5.37,-0.4 13.1,-0.4 18.46,0zm-13.69 4.41c-0.08,0.01 -0.17,0.01 -0.25,0.01l-3.38 0.14c-0.25,0.02 -0.49,0.05 -0.73,0.07 -2.6,0.16 -5.15,0.37 -7.65,0.65 -0.81,0.1 -1.63,0.2 -2.43,0.31 -0.07,0.01 -0.14,0.01 -0.21,0.02 -0.46,0.07 -0.89,0.2 -1.26,0.38 -0.77,0.35 -1.36,0.92 -1.77,1.71l-4.41 9.38c1.31,-0.07 2.61,-0.14 3.92,-0.19 7.55,-0.34 15.09,-0.51 22.62,-0.52 7.53,0.01 15.07,0.18 22.61,0.52 1.31,0.05 2.62,0.12 3.92,0.19l-4.42 -9.38c-0.4,-0.79 -0.98,-1.36 -1.74,-1.71 -0.38,-0.18 -0.81,-0.31 -1.28,-0.38 -0.06,-0.01 -0.13,-0.01 -0.19,-0.02 -0.8,-0.11 -1.61,-0.21 -2.42,-0.31 -2.51,-0.28 -5.07,-0.49 -7.67,-0.65 -0.24,-0.02 -0.48,-0.05 -0.73,-0.07l-3.37 -0.14c-0.09,0 -0.17,0 -0.26,-0.01 -0.04,0 -0.09,-0.01 -0.13,-0.01 -1.38,-0.04 -2.82,-0.07 -4.32,-0.08 -1.5,0.01 -2.94,0.04 -4.32,0.08 -0.04,0 -0.09,0.01 -0.13,0.01zm-10.67 30.77c4.18,4.19 9.22,6.28 15.12,6.28 0.11,0 0.21,0 0.32,0l0.01 0c5.76,-0.07 10.7,-2.16 14.81,-6.28 0.67,-0.66 1.27,-1.35 1.83,-2.05l-33.93 0c0.56,0.7 1.17,1.39 1.84,2.05zm-12.4 -5.96c-0.91,-0.92 -2.03,-1.38 -3.33,-1.39 -1.31,0.01 -2.44,0.47 -3.36,1.39 -0.93,0.92 -1.39,2.03 -1.39,3.33 0,1.32 0.46,2.44 1.39,3.36 0.92,0.93 2.05,1.39 3.36,1.39 1.3,0 2.42,-0.46 3.33,-1.39 0.93,-0.92 1.4,-2.04 1.4,-3.36 0,-1.3 -0.47,-2.41 -1.4,-3.33zm55.07 0c-0.93,0.92 -1.39,2.03 -1.4,3.33 0.01,1.32 0.47,2.44 1.4,3.36 0.92,0.93 2.03,1.39 3.34,1.39 1.31,0 2.43,-0.46 3.36,-1.39 0.92,-0.92 1.38,-2.04 1.38,-3.36 0,-1.3 -0.46,-2.41 -1.38,-3.33 -0.93,-0.92 -2.05,-1.38 -3.36,-1.39 -1.31,0.01 -2.42,0.47 -3.34,1.39z"/>
     </g>
    </g>
    <path class="fil5" d="M75.45 115.49c20.58,0 37.25,-16.68 37.25,-37.25 0,-20.57 -16.67,-37.25 -37.25,-37.25 -20.57,0 -37.24,16.68 -37.24,37.25 0,20.57 16.67,37.25 37.24,37.25z"/>
    <path class="fil6" d="M75.45 113.45c9.73,0 18.53,-3.94 24.9,-10.31 6.37,-6.38 10.32,-15.18 10.32,-24.9 0,-9.73 -3.95,-18.53 -10.32,-24.9 -6.37,-6.37 -15.17,-10.31 -24.9,-10.31 -9.72,0 -18.52,3.94 -24.89,10.31 -6.37,6.37 -10.32,15.17 -10.32,24.9 0,9.72 3.95,18.52 10.32,24.9 6.37,6.37 15.17,10.31 24.89,10.31zm27.78 -7.43c-7.1,7.11 -16.93,11.5 -27.78,11.5 -10.84,0 -20.67,-4.39 -27.77,-11.5 -7.11,-7.11 -11.51,-16.93 -11.51,-27.78 0,-10.85 4.4,-20.67 11.51,-27.78 7.1,-7.11 16.93,-11.51 27.77,-11.51 10.85,0 20.68,4.4 27.78,11.51 7.11,7.11 11.51,16.93 11.51,27.78 0,10.85 -4.4,20.67 -11.51,27.78z"/>
   </g>
   <g>
    <path class="fil7" d="M144.87 93.79c-0.53,0 -0.97,-0.18 -1.32,-0.53 -0.35,-0.35 -0.53,-0.79 -0.53,-1.32l0.18 -0.79 21.11 -56.75c0.59,-1.46 1.64,-2.19 3.17,-2.19l9.68 0c1.52,0 2.58,0.73 3.16,2.19l21.12 56.75 0.17 0.79c0,0.53 -0.19,0.97 -0.57,1.32 -0.38,0.35 -0.8,0.53 -1.27,0.53l-7.83 0c-1.23,0 -2.08,-0.56 -2.55,-1.67l-4.05 -10.65 -26.04 0 -4.05 10.65c-0.47,1.11 -1.32,1.67 -2.55,1.67l-7.83 0zm17.51 -22.52l19.88 0 -9.94 -27.1 -9.94 27.1z"/>
    <path id="1" class="fil7" d="M232.23 94.67c-8.09,0 -14.35,-2.07 -18.78,-6.2 -4.43,-4.14 -6.79,-10.02 -7.08,-17.64 -0.06,-1.59 -0.09,-4.17 -0.09,-7.74 0,-3.64 0.03,-6.28 0.09,-7.92 0.29,-7.51 2.66,-13.36 7.12,-17.55 4.46,-4.2 10.71,-6.29 18.74,-6.29 5.22,0 9.77,0.89 13.64,2.68 3.87,1.79 6.87,4.24 9.02,7.35 2.14,3.1 3.26,6.59 3.38,10.46l0 0.18c0,0.47 -0.19,0.87 -0.57,1.19 -0.38,0.32 -0.81,0.48 -1.28,0.48l-8.53 0c-0.7,0 -1.23,-0.16 -1.58,-0.48 -0.36,-0.32 -0.65,-0.9 -0.88,-1.72 -0.88,-3.63 -2.41,-6.2 -4.58,-7.7 -2.17,-1.49 -5.04,-2.24 -8.62,-2.24 -8.39,0 -12.76,4.69 -13.11,14.08 -0.06,1.58 -0.09,4.01 -0.09,7.3 0,3.28 0.03,5.78 0.09,7.48 0.35,9.38 4.72,14.07 13.11,14.07 3.52,0 6.38,-0.74 8.58,-2.24 2.2,-1.49 3.74,-4.06 4.62,-7.7 0.23,-0.82 0.52,-1.39 0.88,-1.71 0.35,-0.33 0.88,-0.49 1.58,-0.49l8.53 0c0.53,0 0.99,0.18 1.37,0.53 0.38,0.35 0.54,0.79 0.48,1.32 -0.12,3.87 -1.24,7.36 -3.38,10.47 -2.15,3.11 -5.15,5.56 -9.02,7.35 -3.87,1.79 -8.42,2.68 -13.64,2.68z"/>
    <path id="2" class="fil7" d="M270.85 93.79c-0.58,0 -1.08,-0.21 -1.49,-0.62 -0.41,-0.41 -0.62,-0.91 -0.62,-1.49l0 -57.28c0,-0.64 0.19,-1.17 0.57,-1.58 0.38,-0.41 0.9,-0.61 1.54,-0.61l38.8 0c0.65,0 1.17,0.2 1.58,0.61 0.42,0.41 0.62,0.94 0.62,1.58l0 5.9c0,0.64 -0.2,1.16 -0.62,1.54 -0.41,0.38 -0.93,0.57 -1.58,0.57l-28.86 0 0 15.4 26.93 0c0.64,0 1.17,0.2 1.58,0.61 0.41,0.41 0.62,0.94 0.62,1.59l0 5.54c0,0.64 -0.21,1.16 -0.62,1.54 -0.41,0.38 -0.94,0.57 -1.58,0.57l-26.93 0 0 15.92 29.56 0c0.65,0 1.18,0.19 1.59,0.58 0.41,0.38 0.61,0.89 0.61,1.54l0 5.98c0,0.64 -0.2,1.16 -0.61,1.54 -0.41,0.38 -0.94,0.57 -1.59,0.57l-39.5 0z"/>
    <path id="3" class="fil7" d="M340.97 93.79c-1.76,0 -2.9,-0.82 -3.43,-2.46l-18.83 -56.49c-0.06,-0.17 -0.09,-0.44 -0.09,-0.79 0,-0.53 0.18,-0.96 0.53,-1.32 0.35,-0.35 0.79,-0.52 1.32,-0.52l7.83 0c0.76,0 1.38,0.2 1.85,0.61 0.47,0.41 0.79,0.85 0.97,1.32l14.69 45.04 14.78 -45.04c0.12,-0.47 0.41,-0.91 0.88,-1.32 0.47,-0.41 1.08,-0.61 1.85,-0.61l7.91 0c0.47,0 0.9,0.17 1.28,0.52 0.38,0.36 0.57,0.79 0.57,1.32l-0.17 0.79 -18.74 56.49c-0.59,1.64 -1.73,2.46 -3.43,2.46l-9.77 0z"/>
    <path id="4" class="fil7" d="M384.52 93.79c-0.59,0 -1.09,-0.21 -1.5,-0.62 -0.41,-0.41 -0.61,-0.91 -0.61,-1.49l0 -57.36c0,-0.65 0.2,-1.16 0.61,-1.54 0.41,-0.38 0.91,-0.57 1.5,-0.57l8.44 0c0.65,0 1.16,0.19 1.54,0.57 0.39,0.38 0.58,0.89 0.58,1.54l0 57.36c0,0.58 -0.19,1.08 -0.58,1.49 -0.38,0.41 -0.89,0.62 -1.54,0.62l-8.44 0z"/>
    <path id="5" class="fil7" d="M426.75 93.79c-1.76,0 -2.91,-0.82 -3.43,-2.46l-18.83 -56.49c-0.06,-0.17 -0.09,-0.44 -0.09,-0.79 0,-0.53 0.18,-0.96 0.53,-1.32 0.35,-0.35 0.79,-0.52 1.32,-0.52l7.83 0c0.76,0 1.38,0.2 1.85,0.61 0.47,0.41 0.79,0.85 0.96,1.32l14.7 45.04 14.78 -45.04c0.11,-0.47 0.41,-0.91 0.88,-1.32 0.47,-0.41 1.08,-0.61 1.84,-0.61l7.92 0c0.47,0 0.9,0.17 1.28,0.52 0.38,0.36 0.57,0.79 0.57,1.32l-0.18 0.79 -18.74 56.49c-0.58,1.64 -1.73,2.46 -3.43,2.46l-9.76 0z"/>
    <path id="6" class="fil7" d="M470.3 93.79c-0.59,0 -1.09,-0.21 -1.5,-0.62 -0.41,-0.41 -0.61,-0.91 -0.61,-1.49l0 -57.28c0,-0.64 0.19,-1.17 0.57,-1.58 0.38,-0.41 0.89,-0.61 1.54,-0.61l38.79 0c0.65,0 1.18,0.2 1.59,0.61 0.41,0.41 0.61,0.94 0.61,1.58l0 5.9c0,0.64 -0.2,1.16 -0.61,1.54 -0.41,0.38 -0.94,0.57 -1.59,0.57l-28.85 0 0 15.4 26.92 0c0.64,0 1.17,0.2 1.58,0.61 0.41,0.41 0.62,0.94 0.62,1.59l0 5.54c0,0.64 -0.21,1.16 -0.62,1.54 -0.41,0.38 -0.94,0.57 -1.58,0.57l-26.92 0 0 15.92 29.56 0c0.64,0 1.17,0.19 1.58,0.58 0.41,0.38 0.62,0.89 0.62,1.54l0 5.98c0,0.64 -0.21,1.16 -0.62,1.54 -0.41,0.38 -0.94,0.57 -1.58,0.57l-39.5 0z"/>
   </g>
  </g>
 </g>
</svg>
