<svg xmlns="http://www.w3.org/2000/svg" width="640" height="640" viewBox="0 0 480 480"><defs/><path d="M8 304h8v168c0 4.426 3.586 8 8 8h432c4.414 0 8-3.574 8-8V304h8c4.414 0 8-3.574 8-8v-32c0-4.426-3.586-8-8-8h-16.207c5.078-6.703 8.207-14.96 8.207-24v-48c0-22.055-17.945-40-40-40h-4.32c7.632-8.504 12.32-19.695 12.32-32 0-26.473-21.527-48-48-48s-48 21.527-48 48c0 12.305 4.688 23.496 12.32 32H344c-19.313 0-35.473 13.77-39.191 32H232a8.017 8.017 0 00-7.434 5.031L194.586 256H144v-48h24c2.121 0 4.16-.84 5.656-2.344l72-72a7.99 7.99 0 000-11.312l-24-24a7.99 7.99 0 00-11.312 0L156.687 152H123.68c7.632-8.504 12.32-19.695 12.32-32 0-26.473-21.527-48-48-48s-48 21.527-48 48c0 12.305 4.687 23.496 12.32 32H40c-22.055 0-40 17.945-40 40v40c0 9.04 3.129 17.297 8.207 24H8c-4.414 0-8 3.574-8 8v32c0 4.426 3.586 8 8 8zm440 160H32V304h416zm16-176H16v-16h448zM384 80c17.648 0 32 14.352 32 32s-14.352 32-32 32c-5.855 0-11.273-1.695-16-4.45 9.52-5.55 16-15.757 16-27.55h-16c0 7.383-5.055 13.559-11.879 15.39C353.574 122.81 352 117.61 352 112c0-17.648 14.352-32 32-32zm-40 80h80c13.23 0 24 10.77 24 24v48c0 13.23-10.77 24-24 24h-48v-24h40c4.414 0 8-3.574 8-8v-32h-16v24h-40c-4.414 0-8 3.574-8 8v32h-28.184l27.618-69.031c.98-2.465.68-5.258-.809-7.457S354.656 176 352 176h-30.527c3.312-9.29 12.113-16 22.527-16zm-106.586 32h102.77l-25.598 64h-102.77zM56 120c0-17.648 14.352-32 32-32s32 14.352 32 32-14.352 32-32 32-32-14.352-32-32zM16 232v-40c0-13.23 10.77-24 24-24h120c2.121 0 4.16-.84 5.656-2.344L216 115.312 228.688 128l-64 64H136c-4.414 0-8 3.574-8 8v56h-16v-32c0-4.426-3.586-8-8-8H56v-16H40v24c0 4.426 3.586 8 8 8h48v24H40c-13.23 0-24-10.77-24-24zm0 0"/><path d="M48 320h16v16H48zm0 0M80 320h16v16H80zm0 0M112 320h16v16h-16zm0 0M48 352h16v16H48zm0 0M80 352h16v16H80zm0 0M48 384h16v16H48zm0 0M164.938 111.39c.992.419 2.03.61 3.062.61a8.008 8.008 0 005.656-2.344L203.312 80H272c4.414 0 8-3.574 8-8V8c0-4.426-3.586-8-8-8H144c-4.414 0-8 3.574-8 8v64c0 4.426 3.586 8 8 8h16v24c0 3.23 1.953 6.16 4.938 7.39zM152 64V16h112v48h-64c-2.121 0-4.16.84-5.656 2.344L176 84.688V72c0-4.426-3.586-8-8-8zm0 0"/><path d="M168 32h16v16h-16zm0 0M200 32h16v16h-16zm0 0M232 32h16v16h-16zm0 0M272 216h16v16h-16zm0 0"/></svg>